<?xml version="1.0" standalone="no"?>
<!DOCTYPE svg PUBLIC "-//W3C//DTD SVG 20010904//EN"
 "http://www.w3.org/TR/2001/REC-SVG-20010904/DTD/svg10.dtd">
<svg version="1.0" xmlns="http://www.w3.org/2000/svg"
 width="517.000000pt" height="482.000000pt" viewBox="0 0 517.000000 482.000000"
 preserveAspectRatio="xMidYMid meet">

<g transform="translate(0.000000,482.000000) scale(0.100000,-0.100000)"
fill="#000000" stroke="none">
<path d="M1979 4216 c8 -9 34 -23 60 -30 25 -8 38 -15 29 -15 -22 -1 -22 -1
-3 -38 17 -35 36 -52 74 -71 l26 -12 -30 6 -30 5 34 -35 c19 -20 33 -37 30
-39 -2 -1 -12 -9 -21 -16 -15 -11 -26 -8 -75 22 -112 68 -303 104 -402 77 -57
-15 -41 -32 33 -34 31 0 56 -5 56 -10 0 -4 11 -6 25 -4 20 4 23 2 14 -8 -16
-20 62 -41 96 -26 14 6 25 8 25 3 0 -5 -10 -12 -22 -16 -21 -6 -18 -9 23 -28
26 -12 61 -28 78 -35 17 -8 31 -17 31 -21 0 -5 -44 -11 -97 -14 -140 -9 -254
-47 -330 -111 -30 -26 -61 -82 -50 -92 11 -12 83 20 109 49 20 21 28 25 28 13
0 -31 96 -7 119 31 11 16 11 16 6 -4 -8 -29 14 -30 74 -3 24 11 46 18 49 15 3
-3 11 0 19 7 11 9 12 7 7 -7 -6 -15 -2 -17 37 -10 24 4 57 14 72 22 48 24 41
7 -9 -22 -72 -42 -224 -200 -261 -270 -53 -104 -67 -160 -67 -275 0 -58 6
-132 13 -165 35 -159 128 -318 245 -415 l69 -58 101 5 c91 4 106 2 151 -20
l50 -23 42 29 c36 26 54 31 121 35 65 4 87 1 126 -17 65 -28 123 -76 145 -119
l18 -35 19 39 c41 83 231 143 357 111 34 -8 70 -19 80 -23 15 -5 37 12 101 77
106 109 156 204 164 310 4 57 11 83 33 117 42 66 46 113 15 165 -13 24 -32 50
-41 57 -9 8 -38 57 -65 110 -34 69 -67 115 -115 165 -73 77 -73 74 -2 -34 46
-68 97 -169 97 -190 0 -5 -21 -11 -46 -14 -25 -2 -51 -10 -57 -17 -9 -10 -7
-11 13 -8 14 3 36 2 50 -2 22 -7 20 -8 -13 -9 -21 -1 -57 -11 -80 -22 -55 -28
-155 -100 -187 -134 -14 -15 -37 -36 -53 -47 l-27 -19 8 23 c17 46 14 118 -8
184 -18 53 -33 76 -83 125 -34 33 -84 70 -112 83 -80 37 -188 60 -255 53 -69
-8 -177 -45 -215 -75 -36 -29 -104 -120 -113 -152 -7 -25 -7 -119 -1 -154 3
-14 -8 -25 -44 -44 -42 -22 -52 -24 -86 -14 -81 25 -138 101 -148 199 -3 32
-12 70 -19 85 -41 80 23 230 142 333 44 38 53 42 38 20 -28 -43 -17 -107 14
-83 14 11 14 9 0 -8 -20 -23 -24 -84 -7 -84 8 0 8 -5 -1 -15 -7 -8 -10 -21 -7
-30 4 -8 2 -17 -3 -20 -13 -8 -13 -75 -1 -75 18 0 82 85 92 123 6 22 7 62 4
91 l-7 51 34 -37 c18 -21 44 -65 57 -98 13 -33 27 -60 31 -60 13 0 30 52 30
94 0 44 -22 110 -40 121 -5 3 -10 11 -10 17 0 7 6 6 15 -2 8 -7 15 -9 15 -6 0
4 7 0 16 -8 8 -9 22 -16 29 -16 8 0 34 -13 57 -29 43 -29 98 -50 98 -37 0 26
-76 113 -120 137 l-35 19 40 -6 c22 -4 48 -11 57 -15 9 -5 21 -8 25 -8 4 1 21
-3 36 -9 55 -23 64 -7 20 34 -50 47 -145 84 -215 84 -21 0 -38 4 -38 10 0 5
32 26 70 45 39 19 70 37 70 39 0 6 -80 -13 -132 -31 -26 -9 -50 -15 -53 -12
-2 3 5 30 16 60 25 63 22 142 -5 184 -10 15 -19 25 -21 23 -2 -2 -13 -99 -15
-130 0 -16 -39 -7 -44 10 -4 10 -19 39 -35 64 -37 58 -98 94 -176 103 -53 6
-58 5 -46 -9z m841 -930 c0 -7 -6 -19 -14 -25 -10 -9 -15 -8 -20 4 -6 17 -66
21 -66 5 0 -5 -5 -10 -11 -10 -5 0 -8 4 -5 9 4 5 -3 7 -14 4 -11 -3 -20 -9
-20 -14 0 -5 -9 -9 -20 -9 -11 0 -20 -4 -20 -10 0 -5 7 -6 17 -3 11 4 14 3 9
-5 -4 -7 -17 -10 -30 -6 -14 3 -31 -2 -48 -15 -14 -12 -31 -21 -36 -21 -5 0
-15 -6 -21 -14 -13 -16 -54 -29 -45 -15 3 5 10 9 15 9 6 0 17 7 25 15 9 8 13
15 10 15 -18 0 -192 -125 -227 -162 -9 -10 -22 -18 -28 -18 -7 0 -9 -4 -6 -10
4 -6 -1 -7 -11 -3 -12 4 -15 3 -10 -5 7 -11 -6 -17 -27 -13 -5 1 -20 -5 -35
-13 -26 -14 -177 -46 -218 -46 -11 0 -29 -6 -40 -14 -18 -14 -18 -15 11 -27
17 -7 36 -11 44 -10 7 1 10 -2 6 -8 -4 -7 4 -11 19 -11 14 0 28 -5 31 -10 4
-6 22 -8 43 -4 20 3 56 8 79 11 24 3 40 9 37 14 -3 5 4 9 15 9 12 0 21 5 21
10 0 6 8 10 18 10 10 0 34 15 54 33 20 18 42 31 49 28 8 -2 10 2 6 13 -4 10
-1 16 8 16 27 0 16 -16 -44 -63 -76 -59 -131 -83 -208 -92 -80 -9 -150 13
-201 64 l-36 36 64 6 c151 13 266 63 464 202 38 27 89 57 115 68 25 11 59 26
74 35 84 47 227 73 227 40z m-40 -61 c0 -8 -4 -15 -9 -15 -13 0 -22 16 -14 24
11 11 23 6 23 -9z m-30 -26 c0 -11 -17 -12 -23 -1 -2 4 -2 1 0 -7 2 -7 -5 -20
-14 -27 -26 -19 -39 -17 -21 4 8 9 18 25 21 34 6 18 37 15 37 -3z m-360 -114
c-19 -14 -38 -25 -43 -25 -12 0 54 48 67 49 6 1 -5 -10 -24 -24z m230 -15 c-6
-11 -12 -20 -14 -20 -2 0 -2 9 1 20 3 11 9 20 15 20 5 0 4 -9 -2 -20z m-165
-41 c-26 -17 -49 -28 -52 -25 -2 2 9 12 26 22 17 10 31 21 31 24 0 3 9 6 21 7
14 1 6 -8 -26 -28z m92 -1 c-3 -8 -6 -5 -6 6 -1 11 2 17 5 13 3 -3 4 -12 1
-19z m83 -74 c0 -15 66 -74 83 -74 7 0 22 -7 33 -16 18 -14 18 -15 -6 -8 -14
4 -31 9 -39 12 -9 3 -12 1 -7 -6 5 -8 2 -10 -8 -6 -9 3 -14 10 -11 14 3 5 2
10 -2 12 -19 8 -54 58 -63 89 -9 31 -8 32 5 15 8 -11 15 -25 15 -32z m-525
-24 c19 -8 19 -9 -2 -9 -12 -1 -25 4 -28 9 -7 12 2 12 30 0z m865 5 c0 -2 -13
-11 -30 -20 -38 -19 -40 -11 -2 9 31 17 32 18 32 11z m-436 -17 c-3 -4 -9 -8
-15 -8 -5 0 -9 4 -9 8 0 5 7 9 15 9 8 0 12 -4 9 -9z m824 -34 c12 -14 22 -33
21 -42 0 -14 -2 -14 -6 -2 -3 8 -15 25 -26 38 -35 38 -111 19 -257 -66 -95
-56 -73 -29 27 34 126 78 196 90 241 38z m-458 12 c0 -2 -7 -7 -16 -10 -8 -3
-12 -2 -9 4 6 10 25 14 25 6z m-336 -31 c11 -8 27 -15 37 -15 9 0 19 -6 22
-14 5 -12 2 -12 -21 0 -15 8 -32 14 -38 14 -6 0 -17 7 -24 15 -16 19 -1 19 24
0z m296 10 c0 -6 -73 -25 -78 -20 -2 2 11 8 29 14 41 11 49 12 49 6z m-369
-85 c11 -6 19 -21 19 -35 0 -29 -6 -31 -27 -9 -19 18 -83 12 -143 -13 -19 -8
-66 -16 -105 -19 l-70 -4 74 20 c40 11 98 29 130 39 31 11 65 22 76 24 11 3
21 5 23 6 2 0 12 -4 23 -9z m41 -114 c8 -16 4 -15 -16 6 -14 15 -26 30 -26 34
0 11 31 -18 42 -40z m408 40 c0 -2 -7 -7 -16 -10 -8 -3 -12 -2 -9 4 6 10 25
14 25 6z m-55 -26 c-3 -5 -12 -10 -18 -10 -7 0 -6 4 3 10 19 12 23 12 15 0z
m265 0 c-8 -5 -19 -10 -25 -10 -5 0 -3 5 5 10 8 5 20 10 25 10 6 0 3 -5 -5
-10z m-70 -30 c-19 -11 -42 -19 -50 -20 -19 0 50 37 70 38 8 1 -1 -7 -20 -18z
m-505 -10 c3 -6 -1 -7 -9 -4 -18 7 -21 14 -7 14 6 0 13 -4 16 -10z m-205 -41
c0 -4 -7 -6 -15 -3 -8 4 -15 10 -15 15 0 4 7 6 15 3 8 -4 15 -10 15 -15z m590
6 c-19 -7 -42 -13 -50 -13 -8 0 1 6 20 13 19 7 42 13 50 13 8 0 -1 -6 -20 -13z
m-95 -25 c-3 -5 -14 -10 -23 -10 -15 0 -15 2 -2 10 20 13 33 13 25 0z"/>
<path d="M3122 3332 c-10 -7 -9 -15 4 -41 9 -18 18 -30 21 -27 2 2 0 13 -6 24
-6 11 -8 28 -5 36 7 18 5 19 -14 8z"/>
<path d="M3156 3303 c7 -4 14 -19 17 -33 4 -22 5 -21 4 4 -1 17 -9 31 -17 33
-10 3 -11 2 -4 -4z"/>
<path d="M3117 3202 c1 -8 3 -16 3 -18 0 -3 5 -2 10 1 6 3 10 11 10 16 0 6 -4
8 -9 5 -5 -4 -11 -3 -14 1 -2 5 -2 2 0 -5z"/>
<path d="M3495 2635 c-22 -8 -53 -28 -69 -46 -25 -28 -28 -38 -24 -81 4 -35
13 -57 32 -77 l27 -28 -26 -5 c-22 -5 -29 0 -45 31 -61 120 -234 172 -402 121
-98 -30 -148 -79 -148 -146 0 -31 7 -56 22 -76 l21 -31 -34 -28 c-19 -16 -37
-29 -41 -29 -3 0 -9 39 -13 88 -3 48 -8 96 -10 108 -9 43 -52 89 -109 118 -48
25 -70 30 -124 30 -67 -1 -130 -23 -165 -58 -14 -14 -20 -13 -64 12 -42 24
-59 27 -133 27 -62 0 -94 -5 -117 -18 -26 -14 -33 -15 -33 -4 0 20 -33 47 -58
47 -11 0 -31 -13 -44 -29 -33 -41 -93 -76 -170 -101 -38 -12 -72 -28 -76 -36
-7 -12 -18 -9 -60 20 -71 47 -146 62 -235 47 -132 -22 -256 -104 -277 -182
-13 -47 -1 -101 30 -134 l21 -22 -30 -31 -31 -30 -6 26 c-4 15 -14 59 -24 97
-41 162 -60 263 -58 309 4 73 -4 75 -173 38 -79 -18 -159 -32 -177 -32 -69 0
-91 -36 -53 -89 27 -38 45 -88 80 -221 17 -63 39 -151 51 -194 39 -149 50
-214 40 -241 -20 -53 -60 -18 -60 54 0 50 -26 71 -90 71 -92 0 -180 -72 -180
-147 0 -48 25 -87 74 -115 101 -57 381 -7 513 92 41 31 83 92 97 142 5 16 9
16 41 -7 145 -98 510 -92 708 12 153 80 211 177 188 314 -6 37 -11 90 -11 116
0 56 24 101 45 83 15 -13 21 -42 35 -175 18 -175 32 -270 42 -282 16 -20 56
-15 89 9 23 18 48 23 120 28 64 3 92 9 99 20 13 21 13 22 -15 59 -13 19 -26
52 -29 75 -3 23 -10 78 -16 124 -12 87 -4 138 25 162 24 20 32 -17 49 -220 9
-107 19 -205 21 -217 7 -31 46 -39 94 -20 21 9 74 19 117 22 44 4 89 11 101
17 15 7 31 7 54 -1 45 -16 123 -14 166 4 44 19 43 19 43 -5 0 -30 42 -47 77
-31 15 7 66 12 117 12 76 0 95 -4 119 -22 26 -19 33 -20 66 -9 37 12 178 10
217 -4 31 -11 55 17 44 52 -14 44 -20 92 -12 92 4 0 18 -20 30 -44 41 -77 155
-142 265 -153 73 -6 153 13 209 50 l35 24 12 -32 c28 -80 128 -133 227 -121
52 6 54 5 54 -18 0 -36 20 -45 101 -45 51 0 96 -7 142 -22 62 -20 70 -21 84
-6 14 13 14 23 3 79 -10 53 -10 76 4 147 33 172 17 257 -61 318 -111 88 -252
115 -367 72 -90 -33 -126 -104 -92 -176 23 -48 25 -47 -79 -41 -16 1 -51 -7
-77 -17 -45 -18 -49 -18 -102 -2 -83 26 -119 92 -97 174 11 39 43 83 61 83 18
0 11 -19 -20 -53 -37 -42 -37 -50 -2 -82 59 -55 148 -57 202 -4 91 91 -33 233
-224 255 -101 12 -243 -53 -282 -127 -8 -16 -17 -29 -20 -29 -3 0 -2 44 1 98
6 86 4 101 -13 128 -27 42 -78 80 -127 93 -50 14 -61 13 -110 -4z m-2536 -122
c-10 -11 -10 -14 -1 -9 8 5 11 1 9 -15 -5 -29 -27 -37 -27 -10 0 12 -5 21 -11
21 -5 0 -7 5 -3 11 4 8 -1 9 -17 4 -19 -5 -21 -4 -9 4 8 6 28 11 44 11 25 0
27 -2 15 -17z m1574 10 c-7 -2 -19 -2 -25 0 -7 3 -2 5 12 5 14 0 19 -2 13 -5z
m80 0 c-7 -2 -21 -2 -30 0 -10 3 -4 5 12 5 17 0 24 -2 18 -5z m-1748 -23 c-1
-22 -25 -53 -25 -33 0 6 -21 11 -50 11 -53 0 -80 -16 -80 -46 0 -12 -7 -7 -20
13 l-19 30 56 12 c30 7 71 15 90 17 19 3 38 7 41 10 8 9 9 8 7 -14z m1342 14
c-3 -3 -12 -4 -19 -1 -8 3 -5 6 6 6 11 1 17 -2 13 -5z m93 -19 c43 -32 56 -53
40 -68 -8 -9 -9 -7 -4 7 6 15 4 17 -7 11 -8 -4 -11 -5 -8 -1 12 13 -40 56 -58
49 -10 -4 -14 -2 -9 5 3 6 -3 12 -16 15 -21 4 -21 4 3 6 14 0 40 -10 59 -24z
m368 16 c11 -7 10 -9 -3 -14 -9 -4 -14 -3 -10 2 3 5 -1 12 -7 14 -7 3 -8 6 -3
6 6 0 16 -3 23 -8z m471 -7 c13 -12 -8 -10 -29 2 l-25 15 25 -7 c14 -3 27 -8
29 -10z m81 7 c0 -5 -9 -7 -20 -4 -11 3 -20 7 -20 9 0 2 9 4 20 4 11 0 20 -4
20 -9z m-750 -13 c0 -4 8 -8 18 -9 9 0 12 -3 5 -5 -7 -3 -21 0 -33 6 -17 9
-21 8 -27 -7 -7 -21 -43 -69 -43 -59 0 11 21 49 36 67 15 17 44 22 44 7z m785
1 c11 -16 1 -19 -13 -3 -7 8 -8 14 -3 14 5 0 13 -5 16 -11z m-1265 -19 c0 -5
-2 -10 -4 -10 -3 0 -8 5 -11 10 -3 6 -1 10 4 10 6 0 11 -4 11 -10z m102 1 c-8
-4 -14 -12 -15 -17 -1 -5 -5 -8 -9 -6 -5 1 -8 -1 -8 -5 0 -5 -9 -19 -20 -33
l-20 -25 11 30 c13 38 38 65 58 65 13 0 13 -2 3 -9z m629 -33 c15 -28 5 -21
-21 15 -15 20 -17 27 -6 18 9 -8 22 -23 27 -33z m573 21 c-3 -5 -10 -7 -15 -3
-5 3 -7 10 -3 15 3 5 10 7 15 3 5 -3 7 -10 3 -15z m-754 -20 c12 -16 20 -32
17 -35 -2 -3 -14 11 -25 31 -26 43 -21 46 8 4z m558 4 c25 -21 40 -73 22 -73
-16 0 -53 20 -62 34 -13 19 -9 56 6 56 8 0 23 -8 34 -17z m437 -28 c15 -12 11
-12 -12 1 -18 10 -33 25 -33 33 0 12 2 12 13 -2 6 -9 21 -24 32 -32z m-224 3
c-10 -11 -11 -9 -5 6 6 15 4 17 -6 11 -9 -6 -11 -4 -5 4 5 9 10 10 18 2 8 -8
7 -14 -2 -23z m-2446 12 c3 -6 -1 -7 -9 -4 -18 7 -21 14 -7 14 6 0 13 -4 16
-10z m105 -70 c-6 -10 -9 1 -9 35 1 48 1 49 9 15 5 -19 4 -41 0 -50z m490 71
c-27 -4 -40 -9 -33 -14 7 -4 10 -14 6 -22 -3 -9 1 -15 10 -15 9 0 24 -16 33
-35 20 -42 14 -58 -7 -17 -7 15 -24 37 -37 50 -13 12 -20 27 -17 32 3 6 1 10
-4 10 -6 0 -11 -7 -11 -16 0 -8 -5 -12 -11 -9 -6 4 -27 7 -47 7 -45 0 -23 15
33 22 20 3 40 7 43 10 3 3 24 5 46 4 l41 -1 -45 -6z m417 -5 c0 -8 -6 -12 -14
-9 -7 3 -17 -5 -22 -18 -5 -13 -10 -18 -10 -11 -1 10 -4 10 -16 -2 -15 -14
-11 -45 8 -57 5 -4 5 -9 -2 -13 -6 -4 -14 1 -18 11 -3 10 -15 30 -25 46 l-19
27 23 0 c18 0 66 21 94 39 0 1 1 -5 1 -13z m318 4 c-3 -5 -10 -10 -16 -10 -5
0 -9 5 -9 10 0 6 7 10 16 10 8 0 12 -4 9 -10z m716 -13 c-10 -9 -11 -8 -5 6 3
10 9 15 12 12 3 -3 0 -11 -7 -18z m-2170 1 c0 -7 1 -30 3 -51 2 -31 1 -34 -9
-20 -15 23 -19 83 -5 83 5 0 10 -6 11 -12z m60 -1 c-1 -4 -1 -15 -1 -24 0 -15
-2 -14 -14 2 -8 11 -12 23 -9 28 6 9 25 5 24 -6z m772 -11 c13 -9 26 -14 29
-11 2 3 13 -4 23 -15 25 -28 5 -25 -41 6 -21 15 -44 27 -51 28 -7 1 -15 5 -19
9 -12 12 34 -1 59 -17z m626 -55 l-1 -36 -7 35 c-4 20 -11 42 -16 50 -8 13 -6
13 8 1 11 -8 17 -27 16 -50z m1898 53 c-3 -3 -12 -4 -19 -1 -8 3 -5 6 6 6 11
1 17 -2 13 -5z m-2826 -27 c-6 -8 -8 -16 -5 -20 3 -3 -4 -8 -15 -12 -12 -3
-19 -10 -16 -15 4 -7 -9 -7 -33 -1 -6 2 34 38 53 49 26 15 30 15 16 -1z m460
-29 c19 -36 50 -273 33 -256 -3 3 -16 59 -29 124 -13 66 -27 127 -30 137 -10
25 12 21 26 -5z m283 -8 c-6 -6 -10 -3 -10 10 0 13 4 16 10 10 7 -7 7 -13 0
-20z m-620 -11 c14 -17 26 -35 26 -40 0 -33 -83 -6 -95 31 -15 48 31 54 69 9z
m247 21 c5 0 9 -7 9 -15 0 -20 -6 -19 -32 7 -17 17 -18 20 -4 15 10 -4 22 -7
27 -7z m736 -12 c-3 -8 -6 -5 -6 6 -1 11 2 17 5 13 3 -3 4 -12 1 -19z m-1383
-28 c6 -34 6 -34 -9 -13 -8 12 -12 29 -9 38 8 20 10 18 18 -25z m2056 30 c0
-5 -5 -10 -11 -10 -5 0 -7 5 -4 10 3 6 8 10 11 10 2 0 4 -4 4 -10z m115 -10
c-3 -5 -16 -15 -28 -21 -19 -9 -19 -8 3 10 28 23 34 26 25 11z m325 0 c0 -5
-2 -10 -4 -10 -3 0 -8 5 -11 10 -3 6 -1 10 4 10 6 0 11 -4 11 -10z m-526 -8
c3 -5 -1 -9 -9 -9 -8 0 -12 4 -9 9 3 4 7 8 9 8 2 0 6 -4 9 -8z m470 -18 c9
-25 7 -234 -3 -234 -15 0 -21 41 -21 148 0 94 9 126 24 86z m1196 -74 c23 -23
27 -80 6 -80 -21 0 -56 48 -56 76 0 30 23 31 50 4z m-1490 -7 c-1 -44 -60 -75
-60 -32 0 22 25 48 48 49 6 0 12 -8 12 -17z m-1676 -140 c9 -57 7 -113 -4
-113 -14 0 -40 55 -40 85 0 29 16 65 29 65 5 0 11 -17 15 -37z m3167 -86 c-10
-26 -61 -38 -61 -13 0 16 49 48 62 40 4 -3 3 -15 -1 -27z"/>
</g>
</svg>
